# xmcd
#
# Track frame offsets: 
#        150
#        13481
#        33082
#        52094
#        68980
#        103505
#        125580
#        150655
#        169691
#        185292
#        202890
#        217091
#
# Disc length: 3138 seconds
#
# Revision: 0
# Processed by: cddbd v1.5.2PL0 Copyright (c) Steve Scherf et al.
# Submitted via: ExactAudioCopy v0.99pb5
#
DISCID=a80c400c
DTITLE=Peter Karp - The Turning Point
DYEAR=2004
DGENRE=Blues
TTITLE0=Train O'Mine
TTITLE1=Rolling on a Log
TTITLE2=The Turning Point
TTITLE3=The Nietzsche Lounge
TTITLE4=Her and My Blues
TTITLE5=Treat Me Right
TTITLE6=I'm Not Giving Up
TTITLE7=Your Prettiness
TTITLE8=The Arson's Match
TTITLE9=Blues in Mind
TTITLE10=Till You Get Home
TTITLE11=Nobody Really Knows
EXTD=
EXTT0=
EXTT1=
EXTT2=
EXTT3=
EXTT4=
EXTT5=
EXTT6=
EXTT7=
EXTT8=
EXTT9=
EXTT10=
EXTT11=
PLAYORDER=
